<?xml version="1.0" encoding="UTF-8"?>
<svg width="35px" height="35px" viewBox="0 0 35 35" version="1.1" xmlns="http://www.w3.org/2000/svg" xmlns:xlink="http://www.w3.org/1999/xlink">
    <!-- Generator: Sketch 46.1 (44463) - http://www.bohemiancoding.com/sketch -->
    <title>Page 1</title>
    <desc>Created with Sketch.</desc>
    <defs></defs>
    <g id="Interfaces" stroke="none" stroke-width="1" fill="none" fill-rule="evenodd">
        <g id="Group-3" transform="translate(-130.000000, 0.000000)" fill="#000000">
            <path d="M152.977642,17.4644332 C152.977642,18.9820559 152.444113,20.2743857 151.37703,21.3414634 C150.309953,22.4085457 149.017623,22.9420754 147.5,22.9420754 C145.982377,22.9420754 144.690047,22.4085457 143.62297,21.3414634 C142.555887,20.2743857 142.022358,18.9820559 142.022358,17.4644332 C142.022358,17.3221567 142.034213,17.1739525 142.057929,17.0198205 C142.08164,16.8656839 142.105352,16.7174842 142.129063,16.5752078 L140.208336,16.5752078 L140.208336,23.8313054 C140.208336,24.0921424 140.297257,24.3114849 140.4751,24.4893327 C140.652948,24.6671759 140.872291,24.7560976 141.133128,24.7560976 L153.866872,24.7560976 C154.127709,24.7560976 154.347052,24.6671759 154.5249,24.4893327 C154.702743,24.3114849 154.791664,24.0921424 154.791664,23.8313054 L154.791664,16.5752078 L152.870937,16.5752078 C152.894648,16.7174842 152.91836,16.8656839 152.942071,17.0198205 C152.965787,17.1739525 152.977642,17.3221567 152.977642,17.4644332 Z M147.5,21.1280533 C148.49594,21.1280533 149.349589,20.7723623 150.060976,20.0609756 C150.772362,19.3495935 151.128049,18.4840839 151.128049,17.4644332 C151.128049,16.4684937 150.772362,15.6148442 150.060976,14.9034576 C149.349589,14.1920709 148.49594,13.8363844 147.5,13.8363844 C146.50406,13.8363844 145.650411,14.1920709 144.939024,14.9034576 C144.227638,15.6148442 143.871951,16.4684937 143.871951,17.4644332 C143.871951,18.4840839 144.227638,19.3495935 144.939024,20.0609756 C145.650411,20.7723623 146.50406,21.1280533 147.5,21.1280533 Z M151.875002,13.6585366 L154.044715,13.6585366 C154.210708,13.6585366 154.347052,13.6051863 154.453761,13.4984767 C154.560466,13.3917717 154.613821,13.2554231 154.613821,13.0894309 L154.613821,10.9197177 C154.613821,10.7774413 154.560466,10.6529483 154.453761,10.5462433 C154.347052,10.4395337 154.210708,10.3861789 154.044715,10.3861789 L151.875002,10.3861789 C151.732721,10.3861789 151.602305,10.4395337 151.48374,10.5462433 C151.365175,10.6529483 151.305897,10.7774413 151.305897,10.9197177 L151.305897,13.0894309 C151.329608,13.2554231 151.394818,13.3917717 151.501523,13.4984767 C151.608233,13.6051863 151.732721,13.6585366 151.875002,13.6585366 Z M147.5,0 C145.081287,0 142.810815,0.456468293 140.688515,1.36941398 C138.566215,2.28235967 136.71664,3.52726244 135.139735,5.1041678 C133.562831,6.68107317 132.311996,8.53064846 131.387195,10.6529483 C130.462394,12.7752481 130,15.0457203 130,17.4644332 C130,19.883146 130.462394,22.1536182 131.387195,24.275918 C132.311996,26.3982179 133.562831,28.2477932 135.139735,29.8246985 C136.71664,31.4016021 138.566215,32.6524367 140.688515,33.577238 C142.810815,34.5020393 145.081287,34.9644332 147.5,34.9644332 C149.918713,34.9644332 152.189185,34.5020393 154.311485,33.577238 C156.433785,32.6524367 158.28336,31.4016021 159.860265,29.8246985 C161.437171,28.2477932 162.688001,26.3982179 163.612803,24.275918 C164.537608,22.1536182 165,19.883146 165,17.4644332 C165,15.0457203 164.537608,12.7752481 163.612803,10.6529483 C162.688001,8.53064846 161.437171,6.68107317 159.860265,5.1041678 C158.28336,3.52726244 156.433785,2.28235967 154.311485,1.36941398 C152.189185,0.456468293 149.918713,0 147.5,0 Z M156.605691,24.5426875 C156.605691,25.1117932 156.410064,25.5919727 156.018802,25.9832351 C155.62754,26.3744976 155.14736,26.5701242 154.578254,26.5701242 L140.421746,26.5701242 C139.85264,26.5701242 139.37246,26.3744976 138.981198,25.9832351 C138.589936,25.5919727 138.394309,25.1117932 138.394309,24.5426875 L138.394309,10.3861789 C138.394309,9.84078439 138.589936,9.36653724 138.981198,8.96341463 C139.37246,8.56029659 139.85264,8.35874211 140.421746,8.35874211 L154.578254,8.35874211 C155.14736,8.35874211 155.62754,8.56029659 156.018802,8.96341463 C156.410064,9.36653724 156.605691,9.84078439 156.605691,10.3861789 L156.605691,24.5426875 Z" id="Page-1"></path>
        </g>
    </g>
</svg>