<?xml version="1.0" encoding="UTF-8"?>
<svg width="35px" height="35px" viewBox="0 0 35 35" version="1.1" xmlns="http://www.w3.org/2000/svg" xmlns:xlink="http://www.w3.org/1999/xlink">
    <!-- Generator: Sketch 46.1 (44463) - http://www.bohemiancoding.com/sketch -->
    <title>Page 1</title>
    <desc>Created with Sketch.</desc>
    <defs></defs>
    <g id="Interfaces" stroke="none" stroke-width="1" fill="none" fill-rule="evenodd">
        <g id="Group-3" fill="#000000">
            <path d="M17.5,0 C12.6692475,0 8.54493938,1.70896687 5.12695313,5.12695312 C1.70896731,8.54493938 0,12.6692475 0,17.5 C0,22.3307525 1.70896731,26.4550606 5.12695313,29.8730469 C8.54493938,33.2910327 12.6692475,35 17.5,35 C22.3307525,35 26.4550606,33.2910327 29.8730469,29.8730469 C33.2910331,26.4550606 35,22.3307525 35,17.5 C35,12.6692475 33.2910331,8.54493938 29.8730469,5.12695312 C26.4550606,1.70896687 22.3307525,0 17.5,0 Z M22.0117188,17.5 L19.140625,17.5 L19.140625,28.0273438 L15.2441406,28.0273438 L15.2441406,17.5 L12.578125,17.5 L12.578125,13.8769531 L15.2441406,13.8769531 L15.2441406,11.7578125 C15.2441406,10.1627531 15.5403631,8.966475 16.1328125,8.1689475 C16.7252619,7.37141562 17.8417881,6.97265625 19.4824219,6.97265625 L22.3535156,6.97265625 L22.3535156,10.5957031 L20.5761719,10.5957031 C19.9381481,10.5957031 19.5393888,10.7096325 19.379885,10.9375 C19.2203769,11.1653675 19.140625,11.55273 19.140625,12.0996094 L19.140625,13.8769531 L22.421875,13.8769531 L22.0117188,17.5 Z" id="Page-1"></path>
        </g>
    </g>
</svg>